<svg version="1.1" id="Layer_1" xmlns="http://www.w3.org/2000/svg" xmlns:xlink="http://www.w3.org/1999/xlink" x="0px" y="0px"
	 width="100%" viewBox="0 0 5660 509" enable-background="new 0 0 5660 509" xml:space="preserve">
<path fill="#FFFFFF" opacity="1.000000" stroke="none" 
	d="
M2052.000000,1.000000 
	C3254.950195,1.000000 4457.900391,1.000000 5660.925293,1.000000 
	C5660.925293,170.609772 5660.925293,340.219604 5660.925293,509.914703 
	C3774.333252,509.914703 1887.666626,509.914703 1.000001,509.909912 
	C1.000000,507.571167 1.000000,505.237244 1.325713,502.427429 
	C1.865976,501.914337 2.080526,501.877167 2.744548,501.816467 
	C162.362396,501.792877 321.530762,501.792877 481.004028,501.792877 
	C481.004028,499.130585 481.004059,497.309296 481.003967,495.487976 
	C481.002808,470.167114 481.001526,444.846252 481.000580,419.525391 
	C481.000336,412.963928 481.000824,412.959198 474.596130,412.959229 
	C351.989838,412.959595 229.383575,412.964203 106.777306,412.937439 
	C104.652245,412.936951 102.527275,412.560638 100.395966,411.940033 
	C100.358765,371.763397 100.324982,332.006470 100.309608,292.249512 
	C100.309097,290.927551 100.495201,289.605560 101.062050,288.112305 
	C213.925858,287.941071 326.321930,287.941071 438.798401,287.941071 
	C438.798401,258.039307 438.798401,228.859497 438.798401,199.255005 
	C436.190857,199.255005 434.052399,199.254990 431.913940,199.255020 
	C323.624207,199.256027 215.334457,199.259430 107.044708,199.240784 
	C104.898666,199.240417 102.752663,198.982162 100.605194,198.452805 
	C100.504013,195.746796 100.321411,193.432343 100.317032,191.117569 
	C100.256691,159.263016 100.220901,127.408394 100.403900,95.449265 
	C100.628716,95.344734 101.048660,95.081085 101.506821,95.173141 
	C226.553940,95.291222 351.142944,95.289444 475.731750,95.447929 
	C480.566956,95.454086 481.447266,93.783218 481.419708,89.414848 
	C481.245270,61.766499 481.338501,34.116493 481.318604,6.467049 
	C481.317291,4.644624 481.110962,2.822346 481.000000,1.000000 
	C990.370911,1.000000 1499.741821,1.000000 2009.664307,1.249359 
	C2010.145996,1.665807 2010.075928,1.832897 2009.559082,2.030765 
	C1968.282349,4.311019 1928.965576,13.024666 1891.553223,29.746832 
	C1852.000610,47.425652 1817.818481,72.350471 1791.273193,106.760460 
	C1745.905518,165.569397 1731.503662,232.276291 1745.843018,304.441650 
	C1761.686890,384.178894 1809.821533,439.780609 1881.425415,475.963867 
	C1920.342773,495.629791 1962.008789,505.469604 2005.390991,508.277863 
	C2055.239990,511.504730 2103.999756,506.111816 2151.091064,488.828735 
	C2199.102051,471.208221 2240.343750,443.713135 2271.799805,402.975861 
	C2312.327881,350.490143 2327.672363,290.747711 2319.908691,225.210892 
	C2311.898682,157.596344 2279.645752,103.421944 2225.774658,62.331776 
	C2174.585205,23.287104 2115.668701,5.580794 2051.911621,1.736439 
	C2051.876709,1.327995 2051.938232,1.163998 2052.000000,1.000000 
M1566.619263,305.039581 
	C1571.120728,303.336243 1575.700562,301.813385 1580.111450,299.901062 
	C1616.492554,284.128326 1643.813965,259.216797 1658.225342,221.583237 
	C1668.148315,195.670593 1670.008179,168.805130 1666.774658,141.451675 
	C1661.412964,96.095131 1639.877441,60.862450 1600.512695,37.268177 
	C1566.468018,16.862722 1528.740601,9.393701 1489.698853,9.216953 
	C1385.710693,8.746187 1281.718994,9.057043 1177.728638,9.057137 
	C1175.983887,9.057138 1174.239136,9.057138 1172.599976,9.057138 
	C1172.599976,173.718384 1172.599976,337.608673 1172.599976,501.483887 
	C1206.057861,501.483887 1239.134521,501.483887 1272.911621,501.483887 
	C1272.911621,440.307465 1272.911621,379.456757 1272.911621,318.487671 
	C1330.773438,318.487671 1387.932617,318.456726 1445.091064,318.631134 
	C1446.877686,318.636566 1449.318848,320.344604 1450.345215,321.962738 
	C1487.545898,380.613922 1524.634888,439.335999 1561.636597,498.112915 
	C1563.353882,500.840637 1565.099976,501.897369 1568.366455,501.885620 
	C1603.696167,501.758514 1639.026367,501.811707 1674.356445,501.802795 
	C1675.869629,501.802429 1677.382812,501.676666 1679.688965,501.574005 
	C1637.649780,436.836395 1596.214966,373.029266 1554.589966,308.929382 
	C1558.942993,307.533203 1562.409912,306.421204 1566.619263,305.039581 
M5478.082520,396.447479 
	C5499.558105,430.508606 5521.065918,464.549774 5542.444336,498.672028 
	C5544.009277,501.168610 5545.747070,501.854523 5548.490234,501.849365 
	C5584.485840,501.781799 5620.480957,501.810699 5656.476562,501.788391 
	C5657.523438,501.787750 5658.570312,501.491455 5660.098145,501.260223 
	C5618.277344,436.926331 5576.771973,373.078186 5535.269531,309.234375 
	C5544.023438,306.006165 5552.386719,303.314819 5560.436523,299.885803 
	C5596.916504,284.346893 5624.223145,259.334229 5638.639648,221.821259 
	C5648.803711,195.372330 5650.729004,167.877640 5647.074707,139.866470 
	C5641.433105,96.621773 5621.097168,62.513996 5583.994629,39.157761 
	C5549.323242,17.332018 5510.545410,9.438299 5470.333496,9.235494 
	C5366.349609,8.711060 5262.360840,9.059103 5158.374023,9.058752 
	C5156.605469,9.058746 5154.836426,9.058752 5153.141602,9.058752 
	C5153.141602,173.660873 5153.141602,337.529633 5153.141602,501.530609 
	C5186.650391,501.530609 5219.736816,501.530609 5253.314453,501.530609 
	C5253.314453,440.504211 5253.314453,379.754395 5253.314453,318.834229 
	C5254.739258,318.685455 5255.695801,318.498474 5256.651855,318.498291 
	C5312.645020,318.488708 5368.637695,318.526855 5424.630859,318.418457 
	C5427.983398,318.411957 5429.664062,319.747437 5431.316406,322.382477 
	C5446.699219,346.916412 5462.195801,371.378967 5478.082520,396.447479 
M4604.288086,453.816223 
	C4605.242188,453.150787 4606.193359,452.480316 4607.151367,451.820862 
	C4643.466309,426.835541 4670.558594,394.289124 4686.922363,353.255402 
	C4706.433105,304.328217 4709.706055,253.769135 4699.998047,202.343460 
	C4687.120117,134.126587 4650.256836,82.570038 4589.997559,48.188465 
	C4541.783691,20.679890 4488.982422,9.736567 4434.125488,9.256572 
	C4348.645020,8.508618 4263.153320,9.059070 4177.666016,9.059291 
	C4175.908203,9.059296 4174.150391,9.059291 4172.392578,9.059291 
	C4172.392578,173.664001 4172.392578,337.533386 4172.392578,501.807983 
	C4174.744629,501.807983 4176.716309,501.808014 4178.687500,501.808014 
	C4256.342285,501.808929 4333.997559,501.814789 4411.652344,501.807953 
	C4438.460938,501.805603 4465.160645,500.564941 4491.675293,496.093689 
	C4531.742676,489.336914 4569.429199,476.420624 4604.288086,453.816223 
M3788.601807,129.878571 
	C3780.788330,121.012184 3772.984619,112.137001 3765.159668,103.280708 
	C3738.268799,72.844788 3711.408447,42.381977 3684.373779,12.074319 
	C3682.880127,10.399903 3679.925049,9.198473 3677.641846,9.184850 
	C3646.310547,8.997938 3614.978271,9.055149 3583.645996,9.070561 
	C3582.201660,9.071272 3580.757080,9.243159 3579.275146,9.337724 
	C3579.275146,173.593735 3579.275146,337.482971 3579.275146,501.431335 
	C3611.680908,501.431335 3643.735107,501.431335 3676.359863,501.431335 
	C3676.359863,380.269562 3676.359863,259.486176 3676.359863,137.677277 
	C3697.386475,161.493683 3717.668701,184.433487 3737.914307,207.405670 
	C3784.152100,259.871185 3830.367188,312.356750 3876.600098,364.826538 
	C3915.890137,409.417023 3955.164307,454.021881 3994.594971,498.488220 
	C3996.189697,500.286743 3999.303955,501.645203 4001.723633,501.665558 
	C4028.387451,501.890137 4055.053711,501.812500 4081.719482,501.800079 
	C4083.313477,501.799347 4084.907227,501.657074 4086.410400,501.584991 
	C4086.410400,337.114441 4086.410400,173.220352 4086.410400,9.443892 
	C4053.778564,9.443892 4021.532715,9.443892 3988.795410,9.443892 
	C3988.795410,125.015114 3988.795410,240.199661 3988.795410,356.507355 
	C3921.713623,280.548553 3855.406738,205.467316 3788.601807,129.878571 
M3024.250488,278.710876 
	C2986.959473,352.837738 2949.668457,426.964569 2912.016113,501.809662 
	C2914.950195,501.809662 2916.608154,501.809601 2918.266113,501.809601 
	C2950.258301,501.809631 2982.250977,501.729370 3014.242188,501.910065 
	C3018.304443,501.932983 3020.312744,500.661957 3022.121826,497.035278 
	C3039.829346,461.533813 3057.781250,426.154144 3075.529541,390.672852 
	C3076.888672,387.956238 3078.230225,386.807983 3081.420410,386.811493 
	C3171.564941,386.910583 3261.709473,386.901398 3351.854004,386.838135 
	C3354.489502,386.836273 3355.938232,387.501404 3357.172852,390.018494 
	C3374.727051,425.803406 3392.463379,461.498962 3409.984619,497.299957 
	C3411.697510,500.800079 3413.679688,501.922272 3417.545654,501.902191 
	C3450.203369,501.732697 3482.862549,501.807831 3515.521240,501.809448 
	C3517.122559,501.809509 3518.723633,501.809448 3521.315186,501.809448 
	C3519.213867,497.620544 3517.535156,494.265015 3515.848389,490.913391 
	C3460.458984,380.829926 3405.076904,270.742798 3349.675049,160.665482 
	C3324.903320,111.446419 3300.075439,62.255539 3275.342773,13.016717 
	C3274.052246,10.447386 3272.857178,8.954447 3269.537842,8.968182 
	C3234.213867,9.114347 3198.888916,9.012054 3163.565186,9.197841 
	C3161.800049,9.207126 3159.201660,10.808953 3158.406250,12.383801 
	C3113.713379,100.893616 3069.170898,189.479401 3024.250488,278.710876 
M805.555054,507.993469 
	C820.859680,507.677856 836.184631,507.752808 851.464478,506.959473 
	C877.451416,505.610229 902.919617,500.971191 927.643494,492.777985 
	C978.233032,476.013214 1018.312012,446.075928 1044.135376,398.666840 
	C1065.104126,360.170532 1073.229736,318.428314 1073.423096,275.106750 
	C1073.810303,188.290359 1073.550171,101.471100 1073.557251,14.653031 
	C1073.557373,12.889001 1073.557251,11.124970 1073.557251,9.361118 
	C1039.379883,9.361118 1005.963623,9.361118 972.222656,9.361118 
	C972.222656,11.464812 972.222717,13.266982 972.222717,15.069152 
	C972.223450,99.720940 972.247925,184.372742 972.206421,269.024506 
	C972.197083,288.055023 970.028137,306.856171 964.952332,325.226257 
	C956.054077,357.429962 938.943176,383.656006 909.206543,400.414734 
	C890.499146,410.957733 870.191467,416.209930 848.948669,418.460693 
	C819.196594,421.613007 789.725281,420.637177 760.860901,412.238037 
	C725.152771,401.847412 698.865112,380.290375 683.792725,345.811371 
	C673.063782,321.267914 669.160950,295.352478 669.096191,268.864685 
	C668.889771,184.380035 669.022888,99.894562 669.024902,15.409408 
	C669.024963,13.467205 669.024902,11.525002 669.024902,9.463966 
	C635.080505,9.463966 601.727051,9.463966 568.385864,9.463966 
	C568.289795,10.362325 568.190613,10.853530 568.191467,11.344558 
	C568.345886,99.149231 568.516968,186.953873 568.662354,274.758545 
	C568.701599,298.473297 571.351685,321.882477 577.126404,344.881836 
	C593.028870,408.216705 628.950867,455.419403 688.995483,483.022034 
	C725.668091,499.880524 764.631409,506.227783 805.555054,507.993469 
M2431.500000,9.056491 
	C2423.735107,9.056491 2415.970215,9.056491 2408.329102,9.056491 
	C2408.329102,173.679993 2408.329102,337.565887 2408.329102,501.525085 
	C2557.115479,501.525085 2705.519287,501.525085 2854.177979,501.525085 
	C2854.177979,472.486237 2854.177979,443.733673 2854.177979,414.247406 
	C2738.954590,414.247406 2623.943115,414.247406 2508.451904,414.247406 
	C2508.451904,278.777283 2508.451904,144.040146 2508.451904,9.056682 
	C2482.812988,9.056682 2457.656494,9.056682 2431.500000,9.056491 
M4961.324707,435.499847 
	C4961.324707,457.438080 4961.324707,479.376343 4961.324707,501.500366 
	C4995.211914,501.500366 5028.436035,501.500366 5061.742188,501.500366 
	C5061.742188,337.286530 5061.742188,173.382462 5061.742188,9.362919 
	C5028.260254,9.362919 4995.033203,9.362919 4961.324707,9.362919 
	C4961.324707,151.280167 4961.324707,292.889984 4961.324707,435.499847 
z"/>
<path fill="#6D7E8B" opacity="1.000000" stroke="none" 
	d="
M480.531342,1.000000 
	C481.110962,2.822346 481.317291,4.644624 481.318604,6.467049 
	C481.338501,34.116493 481.245270,61.766499 481.419708,89.414848 
	C481.447266,93.783218 480.566956,95.454086 475.731750,95.447929 
	C351.142944,95.289444 226.553940,95.291222 101.788513,94.871902 
	C103.763641,94.375931 105.915245,94.183395 108.066841,94.183418 
	C230.212845,94.184616 352.358887,94.182182 474.504761,94.300133 
	C478.731171,94.304214 480.268829,93.416496 480.232147,88.825104 
	C480.013702,61.498142 480.129150,34.168552 480.109680,6.839861 
	C480.108643,5.395242 479.900085,3.950770 479.751007,2.027483 
	C477.476105,2.027483 475.518127,2.027521 473.560150,2.027477 
	C324.751984,2.024129 175.943832,2.019302 27.135677,2.021323 
	C18.805220,2.021436 10.474762,2.078026 2.066806,1.836641 
	C1.992872,1.376634 1.996436,1.188317 2.000000,1.000000 
	C161.354233,1.000000 320.708466,1.000000 480.531342,1.000000 
z"/>
<path fill="#EDF4F8" opacity="1.000000" stroke="none" 
	d="
M2.295076,501.840027 
	C2.080526,501.877167 1.865976,501.914337 1.325713,501.975769 
	C1.000000,357.642578 1.000000,213.285172 1.202776,68.489014 
	C1.405553,68.050255 1.813666,68.029228 1.894490,68.489647 
	C2.035955,77.680283 2.096596,86.410507 2.088074,95.591232 
	C2.014552,121.450233 1.985778,146.858765 2.019007,172.267212 
	C2.030722,181.225067 2.194125,190.182739 2.186608,199.590469 
	C2.110724,229.358200 2.136503,258.675934 2.097008,288.457672 
	C2.073002,330.233917 2.114269,371.546204 2.082374,413.331055 
	C1.981767,429.558014 1.897736,445.312561 1.944057,461.066742 
	C1.984019,474.658051 2.172343,488.248962 2.295076,501.840027 
z"/>
<path fill="#D7DCE0" opacity="1.000000" stroke="none" 
	d="
M1.813666,68.029228 
	C1.813666,68.029228 1.405553,68.050255 1.202776,68.025131 
	C1.000000,45.666668 1.000000,23.333334 1.500000,1.000000 
	C1.996436,1.188317 1.992872,1.376634 2.032574,2.296842 
	C1.988449,24.695564 1.901057,46.362396 1.813666,68.029228 
z"/>
<path fill="#8D9EAA" opacity="1.000000" stroke="none" 
	d="
M2051.531250,1.000000 
	C2051.938232,1.163998 2051.876709,1.327995 2051.453613,1.847249 
	C2037.396729,2.134999 2023.701294,2.067492 2010.005981,1.999986 
	C2010.075928,1.832897 2010.145996,1.665807 2010.107910,1.249359 
	C2023.687622,1.000000 2037.375122,1.000000 2051.531250,1.000000 
z"/>
<path fill="#0A2C46" opacity="1.000000" stroke="none" 
	d="
M1566.248047,305.174408 
	C1562.409912,306.421204 1558.942993,307.533203 1554.589966,308.929382 
	C1596.214966,373.029266 1637.649780,436.836395 1679.688965,501.574005 
	C1677.382812,501.676666 1675.869629,501.802429 1674.356445,501.802795 
	C1639.026367,501.811707 1603.696167,501.758514 1568.366455,501.885620 
	C1565.099976,501.897369 1563.353882,500.840637 1561.636597,498.112915 
	C1524.634888,439.335999 1487.545898,380.613922 1450.345215,321.962738 
	C1449.318848,320.344604 1446.877686,318.636566 1445.091064,318.631134 
	C1387.932617,318.456726 1330.773438,318.487671 1272.911621,318.487671 
	C1272.911621,379.456757 1272.911621,440.307465 1272.911621,501.483887 
	C1239.134521,501.483887 1206.057861,501.483887 1172.599976,501.483887 
	C1172.599976,337.608673 1172.599976,173.718384 1172.599976,9.057138 
	C1174.239136,9.057138 1175.983887,9.057138 1177.728638,9.057137 
	C1281.718994,9.057043 1385.710693,8.746187 1489.698853,9.216953 
	C1528.740601,9.393701 1566.468018,16.862722 1600.512695,37.268177 
	C1639.877441,60.862450 1661.412964,96.095131 1666.774658,141.451675 
	C1670.008179,168.805130 1668.148315,195.670593 1658.225342,221.583237 
	C1643.813965,259.216797 1616.492554,284.128326 1580.111450,299.901062 
	C1575.700562,301.813385 1571.120728,303.336243 1566.248047,305.174408 
M1414.500000,94.716972 
	C1367.404297,94.716972 1320.308594,94.716972 1273.182617,94.716972 
	C1273.182617,141.432297 1273.182617,187.593307 1273.182617,233.934631 
	C1274.475830,233.934631 1275.296265,233.934647 1276.116821,233.934631 
	C1343.256714,233.934387 1410.398315,234.170181 1477.535156,233.720291 
	C1489.880981,233.637543 1502.463867,231.846619 1514.492798,228.979492 
	C1542.665283,222.264557 1564.434448,204.334244 1567.484131,172.467255 
	C1569.742676,148.869949 1563.578735,128.199463 1544.038208,113.153915 
	C1527.266113,100.239922 1507.530640,95.617798 1486.963745,95.002075 
	C1463.161011,94.289482 1439.322754,94.760040 1414.500000,94.716972 
z"/>
<path fill="#092C45" opacity="1.000000" stroke="none" 
	d="
M5477.871094,396.154785 
	C5462.195801,371.378967 5446.699219,346.916412 5431.316406,322.382477 
	C5429.664062,319.747437 5427.983398,318.411957 5424.630859,318.418457 
	C5368.637695,318.526855 5312.645020,318.488708 5256.651855,318.498291 
	C5255.695801,318.498474 5254.739258,318.685455 5253.314453,318.834229 
	C5253.314453,379.754395 5253.314453,440.504211 5253.314453,501.530609 
	C5219.736816,501.530609 5186.650391,501.530609 5153.141602,501.530609 
	C5153.141602,337.529633 5153.141602,173.660873 5153.141602,9.058752 
	C5154.836426,9.058752 5156.605469,9.058746 5158.374023,9.058752 
	C5262.360840,9.059103 5366.349609,8.711060 5470.333496,9.235494 
	C5510.545410,9.438299 5549.323242,17.332018 5583.994629,39.157761 
	C5621.097168,62.513996 5641.433105,96.621773 5647.074707,139.866470 
	C5650.729004,167.877640 5648.803711,195.372330 5638.639648,221.821259 
	C5624.223145,259.334229 5596.916504,284.346893 5560.436523,299.885803 
	C5552.386719,303.314819 5544.023438,306.006165 5535.269531,309.234375 
	C5576.771973,373.078186 5618.277344,436.926331 5660.098145,501.260223 
	C5658.570312,501.491455 5657.523438,501.787750 5656.476562,501.788391 
	C5620.480957,501.810699 5584.485840,501.781799 5548.490234,501.849365 
	C5545.747070,501.854523 5544.009277,501.168610 5542.444336,498.672028 
	C5521.065918,464.549774 5499.558105,430.508606 5477.871094,396.154785 
M5548.444336,169.847244 
	C5550.381836,138.193604 5535.944824,114.764587 5506.842773,102.967316 
	C5492.491699,97.149582 5477.402832,94.714272 5461.930664,94.711731 
	C5394.297852,94.700607 5326.664551,94.702095 5259.031738,94.712158 
	C5257.258301,94.712425 5255.484863,94.863380 5253.608398,94.948761 
	C5253.608398,141.460388 5253.608398,187.509796 5253.608398,233.939087 
	C5255.560059,233.939087 5257.196289,233.939117 5258.832520,233.939087 
	C5324.633301,233.937454 5390.435059,234.143936 5456.233398,233.747238 
	C5468.444336,233.673615 5480.889648,232.268112 5492.793945,229.568726 
	C5521.158203,223.137238 5544.962891,206.488113 5548.444336,169.847244 
z"/>
<path fill="#0A2C46" opacity="1.000000" stroke="none" 
	d="
M4603.954102,453.954010 
	C4569.429199,476.420624 4531.742676,489.336914 4491.675293,496.093689 
	C4465.160645,500.564941 4438.460938,501.805603 4411.652344,501.807953 
	C4333.997559,501.814789 4256.342285,501.808929 4178.687500,501.808014 
	C4176.716309,501.808014 4174.744629,501.807983 4172.392578,501.807983 
	C4172.392578,337.533386 4172.392578,173.664001 4172.392578,9.059291 
	C4174.150391,9.059291 4175.908203,9.059296 4177.666016,9.059291 
	C4263.153320,9.059070 4348.645020,8.508618 4434.125488,9.256572 
	C4488.982422,9.736567 4541.783691,20.679890 4589.997559,48.188465 
	C4650.256836,82.570038 4687.120117,134.126587 4699.998047,202.343460 
	C4709.706055,253.769135 4706.433105,304.328217 4686.922363,353.255402 
	C4670.558594,394.289124 4643.466309,426.835541 4607.151367,451.820862 
	C4606.193359,452.480316 4605.242188,453.150787 4603.954102,453.954010 
M4422.500000,95.557320 
	C4372.071777,95.557320 4321.643555,95.557320 4271.109375,95.557320 
	C4271.109375,202.465714 4271.109375,308.658051 4271.109375,415.020233 
	C4272.754395,415.104736 4274.063965,415.230530 4275.373535,415.230804 
	C4325.531738,415.241333 4375.690918,415.450287 4425.847168,415.157440 
	C4453.304688,414.997131 4480.280762,411.169861 4506.053223,401.110840 
	C4546.744141,385.228973 4576.431641,357.948639 4591.727539,316.499603 
	C4603.733398,283.966309 4605.173340,250.481186 4598.190430,216.661301 
	C4589.184570,173.042099 4565.353516,140.076950 4526.125000,118.705818 
	C4494.163574,101.293892 4459.468262,95.474976 4422.500000,95.557320 
z"/>
<path fill="#0A2C46" opacity="1.000000" stroke="none" 
	d="
M3788.851074,130.132324 
	C3855.406738,205.467316 3921.713623,280.548553 3988.795410,356.507355 
	C3988.795410,240.199661 3988.795410,125.015114 3988.795410,9.443892 
	C4021.532715,9.443892 4053.778564,9.443892 4086.410400,9.443892 
	C4086.410400,173.220352 4086.410400,337.114441 4086.410400,501.584991 
	C4084.907227,501.657074 4083.313477,501.799347 4081.719482,501.800079 
	C4055.053711,501.812500 4028.387451,501.890137 4001.723633,501.665558 
	C3999.303955,501.645203 3996.189697,500.286743 3994.594971,498.488220 
	C3955.164307,454.021881 3915.890137,409.417023 3876.600098,364.826538 
	C3830.367188,312.356750 3784.152100,259.871185 3737.914307,207.405670 
	C3717.668701,184.433487 3697.386475,161.493683 3676.359863,137.677277 
	C3676.359863,259.486176 3676.359863,380.269562 3676.359863,501.431335 
	C3643.735107,501.431335 3611.680908,501.431335 3579.275146,501.431335 
	C3579.275146,337.482971 3579.275146,173.593735 3579.275146,9.337724 
	C3580.757080,9.243159 3582.201660,9.071272 3583.645996,9.070561 
	C3614.978271,9.055149 3646.310547,8.997938 3677.641846,9.184850 
	C3679.925049,9.198473 3682.880127,10.399903 3684.373779,12.074319 
	C3711.408447,42.381977 3738.268799,72.844788 3765.159668,103.280708 
	C3772.984619,112.137001 3780.788330,121.012184 3788.851074,130.132324 
z"/>
<path fill="#092C46" opacity="1.000000" stroke="none" 
	d="
M2009.559082,2.030765 
	C2023.701294,2.067492 2037.396729,2.134999 2051.550049,2.091695 
	C2115.668701,5.580794 2174.585205,23.287104 2225.774658,62.331776 
	C2279.645752,103.421944 2311.898682,157.596344 2319.908691,225.210892 
	C2327.672363,290.747711 2312.327881,350.490143 2271.799805,402.975861 
	C2240.343750,443.713135 2199.102051,471.208221 2151.091064,488.828735 
	C2103.999756,506.111816 2055.239990,511.504730 2005.390991,508.277863 
	C1962.008789,505.469604 1920.342773,495.629791 1881.425415,475.963867 
	C1809.821533,439.780609 1761.686890,384.178894 1745.843018,304.441650 
	C1731.503662,232.276291 1745.905518,165.569397 1791.273193,106.760460 
	C1817.818481,72.350471 1852.000610,47.425652 1891.553223,29.746832 
	C1928.965576,13.024666 1968.282349,4.311019 2009.559082,2.030765 
M1844.849243,267.399719 
	C1845.504883,273.181763 1845.908691,279.005432 1846.856812,284.739075 
	C1853.355103,324.035858 1872.103027,356.227051 1903.420776,380.884583 
	C1932.536987,403.808685 1966.320557,415.281464 2002.676758,419.148651 
	C2040.176758,423.137543 2077.168213,420.234863 2112.785645,406.738922 
	C2148.089111,393.361969 2177.003906,371.834473 2196.274658,338.858917 
	C2219.051025,299.884369 2223.232910,258.001221 2213.462891,214.545227 
	C2205.917236,180.982666 2188.334229,153.325714 2161.631104,131.565628 
	C2133.020996,108.251617 2099.658447,96.364037 2063.533691,91.812393 
	C2026.376099,87.130592 1989.724976,89.822571 1954.171387,102.264320 
	C1913.274414,116.575981 1881.203735,141.608826 1861.273071,180.733688 
	C1847.559814,207.653488 1843.098755,236.479523 1844.849243,267.399719 
z"/>
<path fill="#0A2C46" opacity="1.000000" stroke="none" 
	d="
M3024.432129,278.384277 
	C3069.170898,189.479401 3113.713379,100.893616 3158.406250,12.383801 
	C3159.201660,10.808953 3161.800049,9.207126 3163.565186,9.197841 
	C3198.888916,9.012054 3234.213867,9.114347 3269.537842,8.968182 
	C3272.857178,8.954447 3274.052246,10.447386 3275.342773,13.016717 
	C3300.075439,62.255539 3324.903320,111.446419 3349.675049,160.665482 
	C3405.076904,270.742798 3460.458984,380.829926 3515.848389,490.913391 
	C3517.535156,494.265015 3519.213867,497.620544 3521.315186,501.809448 
	C3518.723633,501.809448 3517.122559,501.809509 3515.521240,501.809448 
	C3482.862549,501.807831 3450.203369,501.732697 3417.545654,501.902191 
	C3413.679688,501.922272 3411.697510,500.800079 3409.984619,497.299957 
	C3392.463379,461.498962 3374.727051,425.803406 3357.172852,390.018494 
	C3355.938232,387.501404 3354.489502,386.836273 3351.854004,386.838135 
	C3261.709473,386.901398 3171.564941,386.910583 3081.420410,386.811493 
	C3078.230225,386.807983 3076.888672,387.956238 3075.529541,390.672852 
	C3057.781250,426.154144 3039.829346,461.533813 3022.121826,497.035278 
	C3020.312744,500.661957 3018.304443,501.932983 3014.242188,501.910065 
	C2982.250977,501.729370 2950.258301,501.809631 2918.266113,501.809601 
	C2916.608154,501.809601 2914.950195,501.809662 2912.016113,501.809662 
	C2949.668457,426.964569 2986.959473,352.837738 3024.432129,278.384277 
M3182.500000,301.218414 
	C3225.431885,301.218414 3268.363770,301.218414 3312.083740,301.218414 
	C3280.030273,236.792969 3248.353760,173.125000 3216.173340,108.444023 
	C3183.736328,173.225861 3151.835938,236.936035 3119.649170,301.218414 
	C3140.850830,301.218414 3161.175293,301.218414 3182.500000,301.218414 
z"/>
<path fill="#0A2C46" opacity="1.000000" stroke="none" 
	d="
M805.065063,507.993286 
	C764.631409,506.227783 725.668091,499.880524 688.995483,483.022034 
	C628.950867,455.419403 593.028870,408.216705 577.126404,344.881836 
	C571.351685,321.882477 568.701599,298.473297 568.662354,274.758545 
	C568.516968,186.953873 568.345886,99.149231 568.191467,11.344558 
	C568.190613,10.853530 568.289795,10.362325 568.385864,9.463966 
	C601.727051,9.463966 635.080505,9.463966 669.024902,9.463966 
	C669.024902,11.525002 669.024963,13.467205 669.024902,15.409408 
	C669.022888,99.894562 668.889771,184.380035 669.096191,268.864685 
	C669.160950,295.352478 673.063782,321.267914 683.792725,345.811371 
	C698.865112,380.290375 725.152771,401.847412 760.860901,412.238037 
	C789.725281,420.637177 819.196594,421.613007 848.948669,418.460693 
	C870.191467,416.209930 890.499146,410.957733 909.206543,400.414734 
	C938.943176,383.656006 956.054077,357.429962 964.952332,325.226257 
	C970.028137,306.856171 972.197083,288.055023 972.206421,269.024506 
	C972.247925,184.372742 972.223450,99.720940 972.222717,15.069152 
	C972.222717,13.266982 972.222656,11.464812 972.222656,9.361118 
	C1005.963623,9.361118 1039.379883,9.361118 1073.557251,9.361118 
	C1073.557251,11.124970 1073.557373,12.889001 1073.557251,14.653031 
	C1073.550171,101.471100 1073.810303,188.290359 1073.423096,275.106750 
	C1073.229736,318.428314 1065.104126,360.170532 1044.135376,398.666840 
	C1018.312012,446.075928 978.233032,476.013214 927.643494,492.777985 
	C902.919617,500.971191 877.451416,505.610229 851.464478,506.959473 
	C836.184631,507.752808 820.859680,507.677856 805.065063,507.993286 
z"/>
<path fill="#0A2C46" opacity="1.000000" stroke="none" 
	d="
M2432.000000,9.056586 
	C2457.656494,9.056682 2482.812988,9.056682 2508.451904,9.056682 
	C2508.451904,144.040146 2508.451904,278.777283 2508.451904,414.247406 
	C2623.943115,414.247406 2738.954590,414.247406 2854.177979,414.247406 
	C2854.177979,443.733673 2854.177979,472.486237 2854.177979,501.525085 
	C2705.519287,501.525085 2557.115479,501.525085 2408.329102,501.525085 
	C2408.329102,337.565887 2408.329102,173.679993 2408.329102,9.056491 
	C2415.970215,9.056491 2423.735107,9.056491 2432.000000,9.056586 
z"/>
<path fill="#0A2C46" opacity="1.000000" stroke="none" 
	d="
M4961.324707,434.999817 
	C4961.324707,292.889984 4961.324707,151.280167 4961.324707,9.362919 
	C4995.033203,9.362919 5028.260254,9.362919 5061.742188,9.362919 
	C5061.742188,173.382462 5061.742188,337.286530 5061.742188,501.500366 
	C5028.436035,501.500366 4995.211914,501.500366 4961.324707,501.500366 
	C4961.324707,479.376343 4961.324707,457.438080 4961.324707,434.999817 
z"/>
<path fill="#092B45" opacity="1.000000" stroke="none" 
	d="
M1.894490,68.489647 
	C1.901057,46.362396 1.988449,24.695564 2.110073,2.568531 
	C10.474762,2.078026 18.805220,2.021436 27.135677,2.021323 
	C175.943832,2.019302 324.751984,2.024129 473.560150,2.027477 
	C475.518127,2.027521 477.476105,2.027483 479.751007,2.027483 
	C479.900085,3.950770 480.108643,5.395242 480.109680,6.839861 
	C480.129150,34.168552 480.013702,61.498142 480.232147,88.825104 
	C480.268829,93.416496 478.731171,94.304214 474.504761,94.300133 
	C352.358887,94.182182 230.212845,94.184616 108.066841,94.183418 
	C105.915245,94.183395 103.763641,94.375931 101.330353,94.779846 
	C101.048660,95.081085 100.628716,95.344734 99.945343,95.302673 
	C66.893730,95.220650 34.525482,95.180687 2.157237,95.140724 
	C2.096596,86.410507 2.035955,77.680283 1.894490,68.489647 
z"/>
<path fill="#0A2C46" opacity="1.000000" stroke="none" 
	d="
M2.744548,501.816467 
	C2.172343,488.248962 1.984019,474.658051 1.944057,461.066742 
	C1.897736,445.312561 1.981767,429.558014 2.539862,413.331055 
	C33.539028,412.851105 64.007553,412.852600 94.476044,412.816071 
	C96.451630,412.813690 98.426865,412.518585 100.402267,412.359680 
	C102.527275,412.560638 104.652245,412.936951 106.777306,412.937439 
	C229.383575,412.964203 351.989838,412.959595 474.596130,412.959229 
	C481.000824,412.959198 481.000336,412.963928 481.000580,419.525391 
	C481.001526,444.846252 481.002808,470.167114 481.003967,495.487976 
	C481.004059,497.309296 481.004028,499.130585 481.004028,501.792877 
	C321.530762,501.792877 162.362396,501.792877 2.744548,501.816467 
z"/>
<path fill="#0A2C46" opacity="1.000000" stroke="none" 
	d="
M2.162281,287.993683 
	C2.136503,258.675934 2.110724,229.358200 2.634691,199.632446 
	C30.507090,199.222992 57.829769,199.240646 85.152374,199.203186 
	C90.303947,199.196121 95.455231,198.969543 100.606644,198.844238 
	C102.752663,198.982162 104.898666,199.240417 107.044708,199.240784 
	C215.334457,199.259430 323.624207,199.256027 431.913940,199.255020 
	C434.052399,199.254990 436.190857,199.255005 438.798401,199.255005 
	C438.798401,228.859497 438.798401,258.039307 438.798401,287.941071 
	C326.321930,287.941071 213.925858,287.941071 100.638397,288.007996 
	C67.218758,288.047852 34.690521,288.020752 2.162281,287.993683 
z"/>
<path fill="#00ADF0" opacity="1.000000" stroke="none" 
	d="
M2.097008,288.457672 
	C34.690521,288.020752 67.218758,288.047852 100.170654,288.179260 
	C100.495201,289.605560 100.309097,290.927551 100.309608,292.249512 
	C100.324982,332.006470 100.358765,371.763397 100.395966,411.940002 
	C98.426865,412.518585 96.451630,412.813690 94.476044,412.816071 
	C64.007553,412.852600 33.539028,412.851105 2.613023,412.858459 
	C2.114269,371.546204 2.073002,330.233917 2.097008,288.457672 
z"/>
<path fill="#00ADF0" opacity="1.000000" stroke="none" 
	d="
M100.605194,198.452820 
	C95.455231,198.969543 90.303947,199.196121 85.152374,199.203186 
	C57.829769,199.240646 30.507090,199.222992 2.736353,199.182465 
	C2.194125,190.182739 2.030722,181.225067 2.019007,172.267212 
	C1.985778,146.858765 2.014552,121.450233 2.088074,95.591232 
	C34.525482,95.180687 66.893730,95.220650 99.720535,95.407204 
	C100.220901,127.408394 100.256691,159.263016 100.317032,191.117569 
	C100.321411,193.432343 100.504013,195.746796 100.605194,198.452820 
z"/>
<path fill="#FFFFFF" opacity="1.000000" stroke="none" 
	d="
M1415.000000,94.716957 
	C1439.322754,94.760040 1463.161011,94.289482 1486.963745,95.002075 
	C1507.530640,95.617798 1527.266113,100.239922 1544.038208,113.153915 
	C1563.578735,128.199463 1569.742676,148.869949 1567.484131,172.467255 
	C1564.434448,204.334244 1542.665283,222.264557 1514.492798,228.979492 
	C1502.463867,231.846619 1489.880981,233.637543 1477.535156,233.720291 
	C1410.398315,234.170181 1343.256714,233.934387 1276.116821,233.934631 
	C1275.296265,233.934647 1274.475830,233.934631 1273.182617,233.934631 
	C1273.182617,187.593307 1273.182617,141.432297 1273.182617,94.716972 
	C1320.308594,94.716972 1367.404297,94.716972 1415.000000,94.716957 
z"/>
<path fill="#FEFEFE" opacity="1.000000" stroke="none" 
	d="
M5548.420898,170.291656 
	C5544.962891,206.488113 5521.158203,223.137238 5492.793945,229.568726 
	C5480.889648,232.268112 5468.444336,233.673615 5456.233398,233.747238 
	C5390.435059,234.143936 5324.633301,233.937454 5258.832520,233.939087 
	C5257.196289,233.939117 5255.560059,233.939087 5253.608398,233.939087 
	C5253.608398,187.509796 5253.608398,141.460388 5253.608398,94.948761 
	C5255.484863,94.863380 5257.258301,94.712425 5259.031738,94.712158 
	C5326.664551,94.702095 5394.297852,94.700607 5461.930664,94.711731 
	C5477.402832,94.714272 5492.491699,97.149582 5506.842773,102.967316 
	C5535.944824,114.764587 5550.381836,138.193604 5548.420898,170.291656 
z"/>
<path fill="#FFFFFF" opacity="1.000000" stroke="none" 
	d="
M4423.000000,95.557266 
	C4459.468262,95.474976 4494.163574,101.293892 4526.125000,118.705818 
	C4565.353516,140.076950 4589.184570,173.042099 4598.190430,216.661301 
	C4605.173340,250.481186 4603.733398,283.966309 4591.727539,316.499603 
	C4576.431641,357.948639 4546.744141,385.228973 4506.053223,401.110840 
	C4480.280762,411.169861 4453.304688,414.997131 4425.847168,415.157440 
	C4375.690918,415.450287 4325.531738,415.241333 4275.373535,415.230804 
	C4274.063965,415.230530 4272.754395,415.104736 4271.109375,415.020233 
	C4271.109375,308.658051 4271.109375,202.465714 4271.109375,95.557320 
	C4321.643555,95.557320 4372.071777,95.557320 4423.000000,95.557266 
z"/>
<path fill="#FFFFFF" opacity="1.000000" stroke="none" 
	d="
M1844.816162,266.912903 
	C1843.098755,236.479523 1847.559814,207.653488 1861.273071,180.733688 
	C1881.203735,141.608826 1913.274414,116.575981 1954.171387,102.264320 
	C1989.724976,89.822571 2026.376099,87.130592 2063.533691,91.812393 
	C2099.658447,96.364037 2133.020996,108.251617 2161.631104,131.565628 
	C2188.334229,153.325714 2205.917236,180.982666 2213.462891,214.545227 
	C2223.232910,258.001221 2219.051025,299.884369 2196.274658,338.858917 
	C2177.003906,371.834473 2148.089111,393.361969 2112.785645,406.738922 
	C2077.168213,420.234863 2040.176758,423.137543 2002.676758,419.148651 
	C1966.320557,415.281464 1932.536987,403.808685 1903.420776,380.884583 
	C1872.103027,356.227051 1853.355103,324.035858 1846.856812,284.739075 
	C1845.908691,279.005432 1845.504883,273.181763 1844.816162,266.912903 
z"/>
<path fill="#FEFFFF" opacity="1.000000" stroke="none" 
	d="
M3182.000000,301.218414 
	C3161.175293,301.218414 3140.850830,301.218414 3119.649170,301.218414 
	C3151.835938,236.936035 3183.736328,173.225861 3216.173340,108.444023 
	C3248.353760,173.125000 3280.030273,236.792969 3312.083740,301.218414 
	C3268.363770,301.218414 3225.431885,301.218414 3182.000000,301.218414 
z"/>
</svg>